<svg xmlns="http://www.w3.org/2000/svg" viewBox="0 0 100 100" width="100" height="100">
  <defs>
    <linearGradient id="grad1" x1="0%" y1="0%" x2="100%" y2="100%">
      <stop offset="0%" stop-color="#0c251e" />
      <stop offset="100%" stop-color="#141d1b" />
    </linearGradient>
    <linearGradient id="leafGrad" x1="0%" y1="100%" x2="100%" y2="0%">
      <stop offset="0%" stop-color="#2b6b3e" />
      <stop offset="50%" stop-color="#4caf50" />
      <stop offset="100%" stop-color="#d3fe32" />
    </linearGradient>
    <filter id="glow" x="-20%" y="-20%" width="140%" height="140%">
      <feGaussianBlur stdDeviation="3" result="blur" />
      <feComposite in="SourceGraphic" in2="blur" operator="over" />
    </filter>
  </defs>
  <circle cx="50" cy="50" r="46" fill="url(#grad1)" stroke="#d3fe32" stroke-width="2" />
  <!-- Stem -->
  <path d="M50,80 C50,80 50,55 50,45 C50,30 35,25 35,25 C35,25 45,35 48,45 C50,52 50,80 50,80 Z" fill="url(#leafGrad)" />
  <path d="M50,80 C50,80 50,55 52,43 C55,28 65,20 65,20 C65,20 58,32 55,42 C52,52 50,80 50,80 Z" fill="url(#leafGrad)" filter="url(#glow)" />
  <circle cx="50" cy="80" r="2" fill="#d3fe32" />
</svg>
